<svg width="28" height="23" viewBox="0 0 28 23" fill="none" xmlns="http://www.w3.org/2000/svg">
<path d="M27.1427 11.6467L23.5307 5.62671C23.052 4.82937 22.176 4.33337 21.2453 4.33337H18V1.66671C18 0.929374 17.404 0.333374 16.6667 0.333374H3.33334C1.86267 0.333374 0.666672 1.52937 0.666672 3.00004V16.3334C0.666672 17.328 1.22134 18.188 2.03067 18.6454C2.19601 21.0707 4.20001 23 6.66667 23C9.012 23 10.9387 21.2547 11.2653 19H15.4013C15.728 21.2547 17.6547 23 20 23C22.3453 23 24.272 21.2547 24.5987 19H24.6667C26.1373 19 27.3333 17.804 27.3333 16.3334V12.3334C27.3333 12.0907 27.268 11.8547 27.1427 11.6467ZM6.66667 20.3334C5.56401 20.3334 4.66667 19.436 4.66667 18.3334C4.66667 17.2307 5.56401 16.3334 6.66667 16.3334C7.76934 16.3334 8.66667 17.2307 8.66667 18.3334C8.66667 19.436 7.76934 20.3334 6.66667 20.3334ZM14 9.66671H11.3333V12.3334H8.66667V9.66671H6.00001V7.00004H8.66667V4.33337H11.3333V7.00004H14V9.66671ZM20 20.3334C18.8973 20.3334 18 19.436 18 18.3334C18 17.2307 18.8973 16.3334 20 16.3334C21.1027 16.3334 22 17.2307 22 18.3334C22 19.436 21.1027 20.3334 20 20.3334ZM18 11V7.00004H21.2453L23.6453 11H18Z" fill="white"/>
</svg>
