<svg width="24" height="19" viewBox="0 0 24 19" fill="none" xmlns="http://www.w3.org/2000/svg">
<path d="M20.1667 5.33329H17.8333V8.83329H14.3333V11.1666H17.8333V14.6666H20.1667V11.1666H23.6667V8.83329H20.1667V5.33329ZM2.66667 5.33329C2.66667 7.99329 4.67333 9.99996 7.33333 9.99996C9.99333 9.99996 12 7.99329 12 5.33329C12 2.67329 9.99333 0.666626 7.33333 0.666626C4.67333 0.666626 2.66667 2.67329 2.66667 5.33329ZM9.66667 5.33329C9.66667 6.70763 8.70767 7.66663 7.33333 7.66663C5.959 7.66663 5 6.70763 5 5.33329C5 3.95896 5.959 2.99996 7.33333 2.99996C8.70767 2.99996 9.66667 3.95896 9.66667 5.33329ZM2.66667 17C2.66667 15.0703 4.237 13.5 6.16667 13.5H8.5C10.4297 13.5 12 15.0703 12 17V18.1666H14.3333V17C14.3333 13.7835 11.7165 11.1666 8.5 11.1666H6.16667C2.95017 11.1666 0.333333 13.7835 0.333333 17V18.1666H2.66667V17Z" fill="#A3A3A3"/>
</svg>
