<svg width="22" height="23" viewBox="0 0 22 23" fill="none" xmlns="http://www.w3.org/2000/svg">
<path d="M10.75 0.333313C7.5335 0.333313 4.91667 2.95015 4.91667 6.16665C4.91667 9.38315 7.5335 12 10.75 12C13.9665 12 16.5833 9.38315 16.5833 6.16665C16.5833 2.95015 13.9665 0.333313 10.75 0.333313ZM10.75 9.66665C8.82033 9.66665 7.25 8.09631 7.25 6.16665C7.25 4.23698 8.82033 2.66665 10.75 2.66665C12.6797 2.66665 14.25 4.23698 14.25 6.16665C14.25 8.09631 12.6797 9.66665 10.75 9.66665ZM21.25 22.5V21.3333C21.25 16.8311 17.5855 13.1666 13.0833 13.1666H8.41667C3.91333 13.1666 0.25 16.8311 0.25 21.3333V22.5H2.58333V21.3333C2.58333 18.1168 5.20017 15.5 8.41667 15.5H13.0833C16.2998 15.5 18.9167 18.1168 18.9167 21.3333V22.5H21.25Z" fill="#A3A3A3"/>
</svg>
